<?xml version="1.0" encoding="utf-8"?>
<!-- Generator: Adobe Illustrator 26.0.3, SVG Export Plug-In . SVG Version: 6.00 Build 0)  -->
<svg version="1.1" xmlns="http://www.w3.org/2000/svg" xmlns:xlink="http://www.w3.org/1999/xlink" x="0px" y="0px"
	 viewBox="0 0 16 16" style="enable-background:new 0 0 16 16;" xml:space="preserve">
<style type="text/css">
	.st0{fill:#1C1C1C;}
	.st1{fill:#3E3E3E;}
	.st2{fill:#FFFFFF;}
</style>
<g id="图层_1">
	<g>
		<path class="st0" d="M3,14.5c-0.8,0-1.5-0.7-1.5-1.5V3c0-0.8,0.7-1.5,1.5-1.5h10c0.8,0,1.5,0.7,1.5,1.5v10c0,0.8-0.7,1.5-1.5,1.5
			H3z"/>
		<path class="st1" d="M13,2c0.6,0,1,0.4,1,1v10c0,0.6-0.4,1-1,1H3c-0.6,0-1-0.4-1-1V3c0-0.6,0.4-1,1-1H13 M13,1H3C1.9,1,1,1.9,1,3
			v10c0,1.1,0.9,2,2,2h10c1.1,0,2-0.9,2-2V3C15,1.9,14.1,1,13,1L13,1z"/>
	</g>
</g>
<g id="图层_2">
	<g>
		<rect x="4.7" y="6.9" transform="matrix(0.7071 -0.7071 0.7071 0.7071 -5.1421 6.4142)" class="st2" width="1" height="5"/>
	</g>
	<g>
		<rect x="4.9" y="7.5" transform="matrix(0.7071 -0.7071 0.7071 0.7071 -2.8995 9)" class="st2" width="9" height="1"/>
	</g>
</g>
</svg>
